<svg width="22" height="24" viewBox="0 0 22 24" xmlns="http://www.w3.org/2000/svg">
    <path d="M16 0c-1.39 0-2.758.54-3.813 1.594L2.813 10.97c-2.973 2.97-2.972 7.807 0 10.78 2.972 2.972 7.808 2.972 10.78 0l6.25-6.25-1.405-1.406-6.25 6.25c-2.21 2.208-5.76 2.208-7.97 0-2.207-2.21-2.207-5.76 0-7.97L13.595 3c1.345-1.345 3.5-1.345 4.844 0 1.344 1.345 1.344 3.5 0 4.844L9.063 17.22c-.482.48-1.24.48-1.72 0-.48-.483-.48-1.24 0-1.72l8.595-8.594L14.53 5.5 5.94 14.094c-1.246 1.245-1.245 3.285 0 4.53 1.245 1.246 3.285 1.246 4.53 0l9.376-9.374c2.11-2.11 2.11-5.547 0-7.656C18.79.54 17.39 0 16 0z" fill="#202020"/>
</svg>
